<svg id="Layer_1" enable-background="new 0 0 512 512" height="512" viewBox="0 0 512 512" width="512" xmlns="http://www.w3.org/2000/svg"><g><g clip-rule="evenodd" fill-rule="evenodd"><path d="m164.167 257.982-2.099-50.099c-.664-15.857-14.197-27.329-29.719-27.329-15.703 0-27.987 14.031-27.329 29.72l.894 21.33 1.205 28.749c.664 15.857 14.198 27.329 29.72 27.329 15.693 0 27.974-14.019 27.328-29.7z" fill="#ffdcd5"/><path d="m162.068 207.883 2.099 50.099.802 19.15c.689 16.462 14.74 28.372 30.854 28.372 15.684 0 28.083-13.484 28.392-29.011-.025-.611-.032-1.226-.02-1.843-1.265-30.186-2.531-60.373-3.795-90.559-.69-16.462-14.739-28.372-30.854-28.372-16.301 0-29.055 14.567-28.372 30.853z" fill="#ffdcd5"/><path d="m115.781 427.104h236.697v74.896h-236.697z" fill="#ff9346"/><path d="m287.504 184.141.141-13.264v.004zm.141-13.264.066-6.192c.181-16.984-13.321-31.847-30.301-31.453-16.785.39-31.134 13.137-31.453 30.301-.587 31.475-1.175 79.642-1.762 111.117.026.617.032 1.231.02 1.843-.309 15.527-12.709 29.011-28.392 29.011-16.114 0-30.164-11.91-30.853-28.372l-.803-19.15c.646 15.68-11.635 29.7-27.33 29.7-15.522 0-29.056-11.473-29.72-27.329l-1.205-28.749v84.36c0 36.906 20.357 73.812 20.512 110.718v.423h215.411v-.423c.256-66.142 37.623-52.221 62.567-118.36 7.941-21.057-4.207-39.631-9.438-49.829-17.391-30.122-29.714-29.609-46.905-26.325l1.493-192.321c.125-16.151-12.727-29.847-28.88-29.847-16.152 0-29.458 12.732-29.847 28.879z" fill="#ffdcd5"/></g><g><path d="m405.551 257.12c-.613-1.142-1.186-2.206-1.69-3.189-.075-.147-.154-.293-.237-.437-9.901-17.15-19.176-26.592-30.072-30.613-5.353-1.975-10.519-2.436-15.67-2.147l1.671-180.796c.097-10.571-4.117-20.944-11.563-28.458-7.336-7.403-17.037-11.48-27.318-11.48-21.821 0-39.322 16.972-39.844 38.638l-2.184 90.635c-6.418-4.099-13.807-6.214-21.468-6.034-20.025.464-36.464 14.229-40.347 32.541-7.236-6.266-16.795-10.057-27.284-10.057-10.253 0-19.909 4.181-27.188 11.771-4.908 5.118-8.347 11.448-10.029 18.235-5.87-3.295-12.695-5.173-19.979-5.173-9.978 0-19.373 4.067-26.455 11.452-7.348 7.662-11.308 18.118-10.865 28.687l.885 21.112v84.158c0 19.882 5.398 39.38 10.619 58.236 4.103 14.821 8.021 28.975 9.385 42.903h-.136c-5.522 0-10 4.478-10 10v74.896c0 5.522 4.478 10 10 10h236.694c5.522 0 10-4.478 10-10v-74.895c0-5.522-4.478-10-10-10h-.294c1.811-25.361 10.664-34.368 23.387-47.285 11.786-11.966 26.455-26.857 38.188-57.968 8.74-23.174-2.283-43.703-8.206-54.732zm-84.879-237.12c4.903 0 9.559 1.974 13.11 5.558 3.715 3.75 5.818 8.925 5.77 14.196l-1.702 184.2c-.41.075-.812.154-1.225.227-19.166 3.373-31.314 2.562-40.295 1.446l4.493-186.508c.257-10.721 8.977-19.119 19.849-19.119zm-84.717 143.722c.209-11.212 9.734-20.212 21.687-20.489 4.998-.112 9.856 1.875 13.635 5.606 4.195 4.143 6.569 9.886 6.517 15.761l-1.456 60.429c-5.897 1.853-10.918 6.375-14.089 12.977-5.565 11.587-5.544 30.692 7.652 45.261.524.578 1.046 1.135 1.567 1.678-5.676 3.131-10.86 6.913-15.542 11.16h-1.428c-.077 0-.155.001-.232.003-5.046.114-9.941-1.893-13.728-5.663-4.099-4.081-6.399-9.7-6.337-15.44-.002-.083-.002-.166-.004-.249.292-15.714.59-35.885.878-55.396.288-19.611.588-39.888.88-55.638zm-59.163 7.615c3.473-3.62 8.002-5.614 12.754-5.614 11.257 0 20.421 8.253 20.862 18.79l3.793 90.486c0 .073.002.146.002.219.186 5.401-1.855 10.741-5.625 14.672-3.473 3.621-8.003 5.615-12.755 5.615-11.257 0-20.421-8.253-20.862-18.79l-2.901-69.248c0-.003 0-.005 0-.008l-.894-21.302c-.228-5.451 1.823-10.852 5.626-14.82zm-56.462 24.515c3.274-3.414 7.543-5.295 12.02-5.295 10.646 0 19.312 7.796 19.729 17.748l2.099 50.097c.21 5.147-1.729 10.247-5.322 13.991-3.274 3.412-7.541 5.291-12.016 5.291-10.646 0-19.312-7.796-19.729-17.748l-2.099-50.078c-.217-5.152 1.722-10.256 5.318-14.006zm274.714 108.943c-10.239 27.148-22.716 39.814-33.724 50.99-13.849 14.059-26.983 27.42-29.162 61.32h-53.033c-5.522 0-10 4.478-10 10s4.478 10 10 10h63.351v54.895h-216.694v-54.895h63.344c5.522 0 10-4.478 10-10s-4.478-10-10-10h-53.144c-1.38-16.424-5.833-32.556-10.175-48.239-5.088-18.378-9.894-35.736-9.894-52.9v-24.015c6.078 3.635 13.243 5.732 20.925 5.732 7.632 0 14.923-2.38 21.1-6.804 6.077 14.519 20.748 24.625 37.886 24.625 10.254 0 19.91-4.181 27.189-11.772.443-.461.871-.935 1.289-1.415.68.789 1.382 1.563 2.124 2.302 4.169 4.15 9.035 7.246 14.301 9.174-10.946 16.328-16.598 34.858-16.598 49.115 0 5.522 4.478 10 10 10s10-4.478 10-10c0-20.648 16.442-54.613 46.27-64.542 7.719 3.206 15.007 3.884 21.805 4.512 4.169.386 8.106.749 12.246 1.641 5.396 1.166 10.719-2.271 11.882-7.669 1.163-5.399-2.271-10.719-7.669-11.882-5.316-1.146-10.259-1.602-14.619-2.005-11.458-1.059-19.026-1.757-29.32-13.122-6.612-7.3-7.227-17.388-4.447-23.174.713-1.485 1.679-2.585 2.264-2.585.009 0 .018.001.027.001 1.854.113 4.102.424 6.702.783 10.081 1.396 25.316 3.502 50.821-.987 2.36-.415 4.576-.853 6.719-1.276 8.476-1.673 14.601-2.883 19.817-.957 6.005 2.216 12.402 9.296 19.557 21.644.527 1.021 1.117 2.122 1.747 3.294 5.336 9.936 12.645 23.545 7.113 38.211z"/><path d="m234.129 417.105h-.008c-5.522 0-9.996 4.478-9.996 10s4.481 10 10.004 10 10-4.478 10-10-4.477-10-10-10z"/></g></g></svg>